<svg width="307" height="61" viewBox="0 0 307 61" fill="none" xmlns="http://www.w3.org/2000/svg">
<path d="M163.367 16.6946H164.16C165.285 16.6946 164.116 13.5194 168.571 16.2977C162.308 7.74213 168.571 16.6947 168.571 16.2977C173.951 15.3716 176.906 12.8579 176.906 8.49185C176.906 2.93511 171.878 0.730056 162.926 0.730056H149.695V1.47978L152.518 1.83259C153.841 2.00899 154.811 3.02332 154.811 4.39046V27.9404C154.811 29.3076 153.841 30.3219 152.518 30.4983L149.695 30.8511V31.6008H164.293V30.8511L161.47 30.4983C160.147 30.3219 159.177 29.3076 159.177 27.9404V16.6946H163.367ZM159.177 2.2736H164.028C170.026 2.2736 172.716 4.34635 172.716 8.71236C172.716 13.0784 169.717 15.1511 163.323 15.1511H159.177V2.2736Z" fill="#E12F2F"/>
<path d="M52.4685 34.6439C64.1471 25.7797 41.0942 37.9516 41.0942 28.3375C41.0942 18.7235 32.1995 -8.57351 47.6092 2.67067C69.1586 18.3949 41.0942 2.44612 41.0942 12.0602C38.0873 12.0602 36.1511 28.3375 52.4685 34.6439ZM52.4685 32.1213C47.0532 40.6035 34.5793 33.5415 36.1511 12.0602C36.1511 4.03376 43.3307 6.68385 50.1149 3.77321C37.7479 4.56703 41.0942 20.0024 41.0942 28.3375C43.1034 34.0907 54.9742 28.1964 52.4685 32.1213Z" fill="#E12F2F"/>
<path d="M260.57 32.9238C267.185 32.9238 271.859 29.5721 271.859 24.7209C271.859 12.8577 253.602 10.8291 253.602 7.69797C253.602 4.56679 256.777 2.27355 261.496 2.27355C266.92 2.27355 268.949 5.18416 269.478 12.8578H270.492L270.933 2.84688C268.331 1.70025 265.024 0.73002 261.496 0.73002C254.616 0.73002 250.338 3.81706 250.338 8.13897C250.338 19.6494 268.684 17.8412 268.684 25.3825C268.684 28.9106 265.068 31.3802 261.011 31.3802C255.322 31.3802 253.028 28.3372 251.97 19.6052H250.956L250.073 30.0572C253.116 31.733 255.939 32.9238 260.57 32.9238Z" fill="#E12F2F"/>
<path d="M0 33.5415H28.0042L29.3272 23.1336H28.5775C25.8873 30.1016 24.0351 31.9979 20.1101 31.9979H11.7749C10.4519 31.9979 9.4817 31.2482 9.4817 29.8811V18.6353H19.8454C21.0362 18.6353 22.2269 19.4732 22.3151 20.6198L22.8002 25.7797H23.55V10.3884H22.8002L22.3151 15.1072C22.1828 16.2979 21.0362 17.0917 19.8454 17.0917H9.4817V4.2143H19.228C22.4915 4.2143 25.314 5.75776 27.078 13.1226H27.8277L26.9458 2.67075H0V3.42047L2.82245 3.77328C4.14548 3.94969 5.11573 4.96399 5.11573 6.33112V29.8811C5.11573 31.2482 4.14548 32.2625 2.82245 32.4389L0 32.7917V33.5415Z" fill="#E12F2F"/>
<path d="M194.953 16.6946H195.747C200.289 29.2634 219.56 57.8887 224.014 60.6671C217.751 52.1114 203.024 23.4862 200.157 16.2977C205.537 15.3716 208.492 12.8578 208.492 8.49182C208.492 2.93508 203.465 0.73002 194.512 0.73002H181.282V1.47974L184.104 1.83255C185.427 2.00895 186.397 3.02329 186.397 4.39042V27.9404C186.397 29.3076 185.427 30.3219 184.104 30.4983L181.282 30.8511V31.6008H195.879V30.8511L193.057 30.4983C191.734 30.3219 190.763 29.3076 190.763 27.9404V16.6946H194.953ZM190.763 2.27356H195.615C201.612 2.27356 204.302 4.34631 204.302 8.71232C204.302 13.0783 201.304 15.1511 194.909 15.1511H190.763V2.27356Z" fill="#E12F2F"/>
<path d="M213.49 33.1444H241.494L242.817 22.7365H242.067C239.377 29.7045 237.525 31.6008 233.6 31.6008H225.265C223.941 31.6008 222.971 30.8511 222.971 29.484V18.2382H233.335C234.526 18.2382 235.716 19.0761 235.805 20.2227L236.29 25.3826H237.04V9.99128H236.29L235.805 14.7101C235.672 15.9008 234.526 16.6946 233.335 16.6946H222.971V3.81718H232.718C235.981 3.81718 238.804 5.36064 240.568 12.7255H241.317L240.435 2.27363H213.49V3.02335L216.312 3.37616C217.635 3.55256 218.605 4.56687 218.605 5.934V29.484C218.605 30.8511 217.635 31.8654 216.312 32.0418L213.49 32.3946V33.1444Z" fill="#E12F2F"/>
<path d="M290.402 34.4675C297.017 34.4675 316.225 33.1444 301.692 26.2647C290.969 21.189 283.434 12.3729 283.434 9.24175C283.434 6.11057 286.609 3.81734 291.328 3.81734C296.753 3.81734 298.781 6.72794 299.31 14.4015H300.325L300.766 4.39065C298.164 3.24402 294.856 2.2738 291.328 2.2738C284.448 2.2738 280.17 5.36084 280.17 9.68275C280.17 21.1931 298.517 19.385 298.517 26.9263C298.517 30.4543 294.9 32.924 290.843 32.924C285.154 32.924 282.861 29.881 281.802 21.149H280.788L279.906 31.601C282.949 33.2768 285.771 34.4675 290.402 34.4675Z" fill="#E12F2F"/>
<path d="M113.733 33.1444C123.082 33.1444 130.006 26.6174 130.006 17.0034C130.006 7.38932 123.082 0.906536 113.733 0.906536C104.383 0.906536 97.4154 7.38932 97.4154 17.0034C97.4154 26.6174 104.383 33.1444 113.733 33.1444ZM113.777 31.6008C105.662 31.6008 102.09 24.5888 102.09 15.989C102.09 7.96263 122.462 30.8952 113.689 2.45008C121.627 2.45008 125.287 9.32977 125.287 17.6649C125.287 25.9559 121.936 31.6008 113.777 31.6008Z" fill="#E12F2F"/>
<path d="M213.49 33.1444H241.494L242.817 22.7365H242.067C239.377 29.7045 237.525 31.6008 233.6 31.6008H225.265C223.941 31.6008 222.971 30.8511 222.971 29.484V18.2382H233.335C234.526 18.2382 235.716 19.0761 235.805 20.2227L236.29 25.3826H237.04V9.99128H236.29L235.805 14.7101C235.672 15.9008 234.526 16.6946 233.335 16.6946H222.971V3.81718H232.718C235.981 3.81718 238.804 5.36064 240.568 12.7255H241.317L240.435 2.27363H213.49V3.02335L216.312 3.37616C217.635 3.55256 218.605 4.56687 218.605 5.934V29.484C218.605 30.8511 217.635 31.8654 216.312 32.0418L213.49 32.3946V33.1444Z" fill="#E12F2F"/>
<path d="M62.9085 31.9979L78.851 30.4544L90.9127 31.9979L86.4585 24.2361H85.7087C83.0186 31.2041 86.9436 30.4544 83.0186 30.4544H74.6835C73.3604 30.4544 72.3902 29.7046 72.3902 28.3375V17.0917H82.754C83.9447 17.0917 85.1354 17.9297 85.2236 19.0763L85.7087 24.2361H86.4585L89.8543 16.1214L86.4585 8.84487H85.7087L85.2236 13.5636C85.0913 14.7544 83.9447 15.5482 82.754 15.5482L72.3902 14.7546V1.87718L82.1366 2.67075C85.4001 2.67075 83.8794 2.1145 85.6435 9.47939H86.4585L89.8543 1.12721L78.7248 2.39296L62.9085 1.12721V1.87693L65.731 2.22974C67.054 2.40615 68.0243 3.42045 68.0243 4.78758V28.3375C68.0243 29.7046 67.054 30.719 65.731 30.8954L62.9085 31.2482V31.9979Z" fill="#E12F2F"/>
</svg>
